<?xml version="1.0" encoding="UTF-8" standalone="no"?>
<!-- Created with Inkscape (http://www.inkscape.org/) -->

<svg
   width="104.89144mm"
   height="63.839039mm"
   viewBox="0 0 104.89144 63.839039"
   version="1.1"
   id="svg1"
   xml:space="preserve"
   xmlns:inkscape="http://www.inkscape.org/namespaces/inkscape"
   xmlns:sodipodi="http://sodipodi.sourceforge.net/DTD/sodipodi-0.dtd"
   xmlns="http://www.w3.org/2000/svg"
   xmlns:svg="http://www.w3.org/2000/svg"><sodipodi:namedview
     id="namedview1"
     pagecolor="#ffffff"
     bordercolor="#666666"
     borderopacity="1.0"
     inkscape:showpageshadow="2"
     inkscape:pageopacity="0.0"
     inkscape:pagecheckerboard="0"
     inkscape:deskcolor="#d1d1d1"
     inkscape:document-units="mm" /><defs
     id="defs1" /><g
     inkscape:label="Layer 1"
     inkscape:groupmode="layer"
     id="layer1"
     transform="translate(-52.343564,-114.57496)"><path
       style="fill:#090909;stroke:none"
       d="m 66.529778,114.73034 c -5.435556,1.40168 -2.115042,6.72269 -5.037155,9.57373 -2.597186,2.53401 -6.797549,-0.0758 -8.622912,3.98889 -1.530415,3.40793 1.209616,8.05604 5.1934,7.26298 5.545511,-1.10396 2.45588,-6.85056 5.389933,-9.58217 2.721757,-2.53397 6.973026,0.0279 8.961807,-4.03244 1.863485,-3.80453 -1.822757,-8.25855 -5.885073,-7.21099 m 52.916662,0.004 c -5.60281,0.744 -2.85985,6.18732 -5.20074,9.20271 -1.86899,2.40751 -5.58448,0.73894 -7.83652,2.41936 -4.03794,3.01301 -1.37397,9.37419 3.51226,8.95255 5.99271,-0.51711 2.91813,-6.36401 5.53965,-9.33881 1.92537,-2.18484 5.57418,-0.56708 7.84658,-2.41228 3.78464,-3.07312 0.97573,-9.46582 -3.86123,-8.82353 m 10.93611,-0.004 c -5.94554,0.67824 -2.94993,6.1078 -5.53964,9.2302 -1.97121,2.37669 -5.54718,0.70485 -7.82889,2.44494 -3.89004,2.96664 -1.16915,9.19941 3.49076,8.92125 6.20481,-0.37038 2.81481,-6.90401 6.07752,-9.6268 2.62477,-2.19042 6.58319,0.21308 8.58317,-3.41944 1.84591,-3.35268 -0.7999,-8.00452 -4.78292,-7.55015 m 10.58334,-0.0174 c -6.63079,0.96017 -5.19268,11.0449 1.41111,9.93358 6.26943,-1.05505 4.69197,-10.81734 -1.41111,-9.93358 m 10.58333,0.004 c -6.33413,1.01788 -5.00135,10.92412 1.41111,9.92623 6.33084,-0.98519 4.88424,-10.93788 -1.41111,-9.92623 M 66.177,125.67135 c -4.771621,1.36917 -2.251838,5.92761 -4.211556,8.92316 -1.653634,2.52767 -5.859888,0.92937 -8.088574,2.96757 -3.688595,3.37334 -0.146847,9.29982 4.539019,8.22931 5.160304,-1.1789 2.121836,-6.70534 5.037155,-9.18692 2.715045,-2.31111 6.891849,0.30784 8.871979,-3.73194 2.010762,-4.10226 -1.828498,-8.44062 -6.148023,-7.20118 m 1.058333,10.57843 c -5.79662,0.68736 -2.981465,5.8753 -5.472955,8.92425 -1.835144,2.24574 -5.047378,0.76732 -7.220511,2.34886 -3.942383,2.86913 -2.033381,10.07132 3.168467,9.6532 5.629485,-0.4525 3.17834,-6.3585 5.24158,-9.44334 1.793078,-2.6809 5.487323,-1.00263 7.804665,-2.68911 4.130376,-3.00595 1.523685,-9.39208 -3.521246,-8.79386 m 51.858337,-0.008 c -6.26161,1.44556 -4.2139,11.02545 2.11666,9.72807 6.29956,-1.29104 4.12468,-11.16895 -2.11666,-9.72807 m 10.58333,0.037 c -6.57167,1.8194 -3.64573,11.66689 2.82222,9.52854 5.82995,-1.92742 3.04487,-11.15288 -2.82222,-9.52854 m 10.58333,-0.001 c -6.48699,1.84424 -3.58433,11.35466 2.82222,9.5857 6.09066,-1.68173 3.24766,-11.31135 -2.82222,-9.5857 m -73.730552,10.54604 c -5.113575,1.23641 -2.553521,6.13986 -4.564334,9.2988 -1.818787,2.85727 -5.772098,0.87865 -8.056454,2.99943 -3.472965,3.22426 -0.49265,9.18045 4.154121,8.32974 5.664488,-1.03702 2.239249,-6.71455 5.389933,-9.1763 2.878887,-2.24938 6.903166,0.0847 8.912812,-3.88001 1.992172,-3.93029 -1.537633,-8.61097 -5.836078,-7.57166 m 73.025272,0.42655 c -5.8807,2.25838 -2.28132,11.32653 3.5275,9.36794 6.42136,-2.16513 2.6754,-11.75006 -3.5275,-9.36794 m 10.58442,0.0408 c -4.23757,1.73911 -1.43509,6.4582 -4.08362,9.04102 -2.14382,2.09064 -5.95345,0.44742 -8.16806,2.72995 -2.28248,2.35248 -0.30128,6.61227 -2.96621,8.43753 -2.57808,1.76577 -5.96026,-0.20405 -8.1716,2.80916 -2.76511,3.76777 0.9961,8.90669 5.39619,7.74042 5.26502,-1.39552 2.02882,-6.73138 5.01973,-9.38835 2.18395,-1.9401 5.69927,-0.30686 7.95411,-2.66951 2.21983,-2.32599 0.45165,-6.24923 2.95233,-8.2206 2.67989,-2.11263 6.26595,0.11985 8.41251,-3.37942 2.56853,-4.18718 -1.96741,-8.89694 -6.34538,-7.1002 m -41.98192,10.46901 c -6.4522,1.53731 -3.58842,11.32689 2.82223,9.48743 6.07355,-1.74274 3.19652,-10.92147 -2.82223,-9.48743 m 42.68612,0.0419 c -5.12997,1.60077 -1.86734,6.77417 -5.01947,9.46621 -2.70503,2.3102 -6.7163,-0.23444 -8.79549,3.72322 -1.94636,3.70484 1.64871,8.15002 5.70107,7.13504 5.33073,-1.33517 2.16193,-6.66181 5.0905,-9.43735 2.53136,-2.39909 6.74439,0.13472 8.81863,-3.71451 2.06671,-3.83527 -1.57483,-8.48955 -5.79524,-7.17261 m -84.313892,0.31059 c -6.425388,1.552 -3.621145,10.87793 2.469444,9.35705 6.44235,-1.60872 3.812542,-10.87441 -2.469444,-9.35705 m 2.72e-4,10.24335 c -6.545612,1.77629 -3.677991,11.68255 2.82195,9.82769 6.165838,-1.75951 3.304484,-11.49022 -2.82195,-9.82769 m 10.935839,-0.0125 c -6.408481,1.52689 -4.025231,11.42475 2.469444,9.8541 6.395448,-1.54666 3.808007,-11.34977 -2.469444,-9.8541 m 10.583605,0.0419 c -6.274197,1.82437 -3.630183,11.78711 2.816777,9.71663 5.614171,-1.80302 2.976622,-11.40119 -2.816777,-9.71663 m 31.044176,-0.0408 c -6.27291,1.44778 -4.2212,11.15796 2.11666,9.73677 6.28023,-1.40826 4.06121,-11.16262 -2.11666,-9.73677 z"
       id="path1" /></g></svg>
