<svg width="24" xmlns="http://www.w3.org/2000/svg" height="17" id="screenshot-781fcb8f-bea1-8073-8008-322e04862ee6" viewBox="-0 -0 24 17" xmlns:xlink="http://www.w3.org/1999/xlink" fill="none" version="1.1"><g id="shape-781fcb8f-bea1-8073-8008-322e04862ee6" rx="0" ry="0"><g id="shape-781fcb8f-bea1-8073-8008-322ce3a0aebf" width="396.44" height="241.281" xml:space="preserve" rx="0" ry="0" style="fill: rgb(0, 0, 0);"><g id="shape-781fcb8f-bea1-8073-8008-322ce3b1e0da" style="display: none;"><g class="fills" id="fills-781fcb8f-bea1-8073-8008-322ce3b1e0da"><rect width="17.142857142857142" height="10.199999999999996" x="0" transform="matrix(1.000000, 0.000000, 0.000000, 1.000000, 0.000000, 0.000000)" style="fill: none;" ry="0" fill="none" rx="0" y="-8.881784197001252e-16"/></g></g><g id="shape-781fcb8f-bea1-8073-8008-322ce3ced675"><g class="fills" id="fills-781fcb8f-bea1-8073-8008-322ce3ced675"><path d="M2.31852388381958,0.02482461929321289C1.4301657676696777,0.24878406524658203,1.9728507995605469,1.0989580154418945,1.495274305343628,1.554483413696289C1.0708062648773193,1.959364891052246,0.38431763648986816,1.5423779487609863,0.08599162101745605,2.191816806793213C-0.16413331031799316,2.736330986022949,0.28368711471557617,3.4789905548095703,0.9347732067108154,3.3522777557373047C1.8411071300506592,3.175889015197754,1.336148738861084,2.2577176094055176,1.8156800270080566,1.8212647438049316C2.2605080604553223,1.4163966178894043,2.9553160667419434,1.8257222175598145,3.280350685119629,1.1769752502441406C3.5849061012268066,0.569098949432373,2.9824485778808594,-0.1425490379333496,2.31852388381958,0.02482461929321289M10.966959953308105,0.02546405792236328C10.051259994506836,0.14433908462524414,10.499558448791504,1.0140595436096191,10.116978645324707,1.4958462715148926C9.811514854431152,1.880509376525879,9.204269409179688,1.6139073371887207,8.836211204528809,1.8824009895324707C8.176268577575684,2.3638129234313965,8.611658096313477,3.380185127258301,9.410239219665527,3.3128175735473633C10.38965129852295,3.2301931381225586,9.887167930603027,2.295992851257324,10.315614700317383,1.8206896781921387C10.630285263061523,1.4716029167175293,11.2266263961792,1.7300796508789062,11.598017692565918,1.4352612495422363C12.216554641723633,0.944249153137207,11.757481575012207,-0.07715845108032227,10.966959953308105,0.02546405792236328M12.754302024841309,0.02482461929321289C11.782590866088867,0.1331944465637207,12.272176742553711,1.0007133483886719,11.84892463684082,1.499600887298584C11.526763916015625,1.8793401718139648,10.94232177734375,1.6122193336486816,10.569415092468262,1.8902411460876465C9.93364143371582,2.364243984222412,10.378331184387207,3.3600988388061523,11.139922142028809,3.315654754638672C12.154009819030762,3.2564735412597656,11.599963188171387,2.2125515937805176,12.133200645446777,1.777513027191162C12.562188148498535,1.4275331497192383,13.209124565124512,1.8115568161010742,13.535994529724121,1.2311677932739258C13.837685585021973,0.6954846382141113,13.405259132385254,-0.04777050018310547,12.754302024841309,0.02482461929321289M14.483983993530273,0.022045135498046875C13.400280952453613,0.17545843124389648,13.6353178024292,1.786768913269043,14.71461296081543,1.609203815460205C15.739253997802734,1.4406309127807617,15.481443405151367,-0.11915874481201172,14.483983993530273,0.022045135498046875M16.213680267333984,0.022684574127197266C15.178455352783203,0.1853170394897461,15.39627456665039,1.7681074142456055,16.444299697875977,1.6086654663085938C17.47898292541504,1.4512553215026855,17.242549896240234,-0.13895320892333984,16.213680267333984,0.022684574127197266M2.260867118835449,1.7729430198669434C1.4810197353363037,1.9917078018188477,1.892838954925537,2.7200417518615723,1.5725529193878174,3.1986637115478516C1.3022925853729248,3.6025238037109375,0.6148362159729004,3.3471527099609375,0.2505989074707031,3.6728124618530273C-0.3522520065307617,4.211794853210449,0.22659826278686523,5.1587066650390625,0.9924304485321045,4.987667083740234C1.8358004093170166,4.799307823181152,1.3392109870910645,3.9163055419921875,1.8156800270080566,3.5198068618774414C2.259410858154297,3.150546073913574,2.942049503326416,3.5689926147460938,3.265666961669922,2.923529624938965C3.5943026542663574,2.2680835723876953,2.966827392578125,1.574911117553711,2.260867118835449,1.7729430198669434M2.433837890625,3.463137626647949C1.4864659309387207,3.57296085357666,1.9465558528900146,4.401872634887695,1.5393650531768799,4.88902473449707C1.239438533782959,5.2478437423706055,0.714449405670166,5.011627197265625,0.3592796325683594,5.26431941986084C-0.2850435972213745,5.722739219665527,0.02695322036743164,6.873485565185547,0.8771164417266846,6.80667781829834C1.7971761226654053,6.734376907348633,1.396568775177002,5.790740013122559,1.7337729930877686,5.297853469848633C2.026827335357666,4.869505882263184,2.6306004524230957,5.137650489807129,3.0093321800231934,4.868194580078125C3.6843791007995605,4.387912750244141,3.258355140686035,3.367555618286133,2.433837890625,3.463137626647949M10.909303665161133,3.4618568420410156C9.885940551757812,3.6928281784057617,10.220599174499512,5.2234697341918945,11.255236625671387,5.016179084777832C12.284804344177246,4.809902191162109,11.929357528686523,3.231639862060547,10.909303665161133,3.4618568420410156M12.638986587524414,3.467771530151367C11.564949989318848,3.758469581604004,12.043144226074219,5.331867218017578,13.100234985351562,4.99021053314209C14.05305290222168,4.682251930236816,13.597870826721191,3.208235740661621,12.638986587524414,3.467771530151367M14.368671417236328,3.467609405517578C13.308478355407715,3.762277603149414,13.782861709594727,5.281826019287109,14.829927444458008,4.999180793762207C15.82535171508789,4.730481147766113,15.360702514648438,3.191891670227051,14.368671417236328,3.467609405517578M2.31852388381958,5.152626037597656C1.4827854633331299,5.350171089172363,1.9011883735656738,6.133633613586426,1.5725529193878174,6.638358116149902C1.275299310684204,7.094886779785156,0.6291906833648682,6.778743743896484,0.2558460235595703,7.117598533630371C-0.31175732612609863,7.632762908935547,0.1753253936767578,8.584421157836914,0.9347732067108154,8.448497772216797C1.8605492115020752,8.282806396484375,1.3007466793060303,7.375667572021484,1.8156800270080566,6.982336044311523C2.2861838340759277,6.622937202453613,2.943894386291504,6.9958696365356445,3.2723402976989746,6.362401962280273C3.597933769226074,5.734431266784668,3.021042823791504,4.986569404602051,2.31852388381958,5.152626037597656M14.253406524658203,5.2207794189453125C13.292299270629883,5.581612586975098,13.880560874938965,7.030499458312988,14.829927444458008,6.717559814453125C15.879396438598633,6.3716230392456055,15.267175674438477,4.840170860290527,14.253406524658203,5.2207794189453125M15.983268737792969,5.227296829223633C15.290706634521484,5.505166053771973,15.74873161315918,6.25916862487793,15.315864562988281,6.671843528747559C14.965490341186523,7.005880355834961,14.342864990234375,6.743330001831055,13.980912208557129,7.108027458190918C13.607876777648926,7.483895301818848,13.931673049926758,8.16451358795166,13.496132850646973,8.45615005493164C13.074788093566895,8.738279342651367,12.522017478942871,8.423548698425293,12.160613059997559,8.904982566833496C11.70869255065918,9.506993293762207,12.323410034179688,10.328071594238281,13.042536735534668,10.141730308532715C13.903024673461914,9.918757438659668,13.374115943908691,9.06620979309082,13.862935066223145,8.641685485839844C14.219869613647461,8.331704139709473,14.794393539428711,8.592656135559082,15.162912368774414,8.215161323547363C15.525712966918945,7.843520164489746,15.23672866821289,7.216677665710449,15.645427703857422,6.901699066162109C16.08342170715332,6.564146041870117,16.66950798034668,6.920844078063965,17.020328521728516,6.361742973327637C17.44011878967285,5.692730903625488,16.69878578186035,4.940216064453125,15.983268737792969,5.227296829223633M9.121953964233398,6.90000057220459C8.0674467086792,7.1456298828125,8.535486221313477,8.70977783203125,9.583210945129395,8.415871620178223C10.575840950012207,8.13742446899414,10.105635643005371,6.670876502990723,9.121953964233398,6.90000057220459M16.09836196899414,6.906695365905762C15.259939193725586,7.162461280822754,15.793169021606445,7.989053726196289,15.278005599975586,8.41917896270752C14.835912704467773,8.788297653198242,14.180328369140625,8.381720542907715,13.840520858764648,9.01406478881836C13.522408485412598,9.606013298034668,14.10997200012207,10.316245079040527,14.772272109985352,10.154081344604492C15.643491744995117,9.940751075744629,15.125604629516602,9.089672088623047,15.604228973388672,8.646204948425293C16.0179443359375,8.262889862060547,16.706497192382812,8.667733192443848,17.045507431030273,8.052712440490723C17.38327980041504,7.439925193786621,16.78812599182129,6.696282386779785,16.09836196899414,6.906695365905762M2.31852388381958,6.95632266998291C1.2683866024017334,7.204298973083496,1.726701021194458,8.694366455078125,2.722114086151123,8.451367378234863C3.775023937225342,8.194328308105469,3.345219612121582,6.7138824462890625,2.31852388381958,6.95632266998291M2.3185644149780273,8.592973709106445C1.2487850189208984,8.87678337097168,1.7174537181854248,10.459576606750488,2.779770851135254,10.163212776184082C3.7874836921691895,9.882084846496582,3.31984281539917,8.327338218688965,2.3185644149780273,8.592973709106445M4.105864524841309,8.590975761413574C3.0585007667541504,8.834938049316406,3.448004722595215,10.416386604309082,4.509464740753174,10.165431022644043C5.554703712463379,9.918312072753906,5.131822109222412,8.352001190185547,4.105864524841309,8.590975761413574M5.835597991943359,8.597670555114746C4.810179233551025,8.889162063598633,5.242298603057861,10.480977058410645,6.295956611633301,10.150163650512695C7.213513374328613,9.862081527709961,6.782441139221191,8.328518867492676,5.835597991943359,8.597670555114746M10.909303665161133,8.591151237487793C9.884085655212402,8.82247257232666,10.219414710998535,10.37393569946289,11.255236625671387,10.146866798400879C12.281641960144043,9.921854972839355,11.91898250579834,8.363333702087402,10.909303665161133,8.591151237487793Z" style="stroke: none; fill: rgb(9, 9, 9);"/></g></g></g><g id="shape-781fcb8f-bea1-8073-8008-322db7c330a8"><g class="fills" id="fills-781fcb8f-bea1-8073-8008-322db7c330a8"><path d="M18.85714340209961,6.800000190734863C21.6955623626709,6.800000190734863,24,9.085233688354492,24,11.899999618530273C24,14.714767456054688,21.6955623626709,17,18.85714340209961,17C16.018722534179688,17,13.714285850524902,14.714767456054688,13.714285850524902,11.899999618530273C13.714285850524902,9.085233688354492,16.018722534179688,6.800000190734863,18.85714340209961,6.800000190734863M17.314285278320312,8.84000015258789L17.314285278320312,14.960000991821289L21.94285774230957,11.899999618530273L17.314285278320312,8.84000015258789" style="fill: rgb(0, 0, 0);"/></g><g id="strokes-2a01b968-e92c-8091-8008-322e2e5f0770-781fcb8f-bea1-8073-8008-322db7c330a8" class="strokes"><g class="inner-stroke-shape"><defs><clipPath id="inner-stroke-render-5-781fcb8f-bea1-8073-8008-322db7c330a8-0"><use href="#stroke-shape-render-5-781fcb8f-bea1-8073-8008-322db7c330a8-0"/></clipPath><path d="M18.85714340209961,6.800000190734863C21.6955623626709,6.800000190734863,24,9.085233688354492,24,11.899999618530273C24,14.714767456054688,21.6955623626709,17,18.85714340209961,17C16.018722534179688,17,13.714285850524902,14.714767456054688,13.714285850524902,11.899999618530273C13.714285850524902,9.085233688354492,16.018722534179688,6.800000190734863,18.85714340209961,6.800000190734863M17.314285278320312,8.84000015258789L17.314285278320312,14.960000991821289L21.94285774230957,11.899999618530273L17.314285278320312,8.84000015258789" id="stroke-shape-render-5-781fcb8f-bea1-8073-8008-322db7c330a8-0" style="fill: none; stroke-width: 1; stroke: rgb(0, 0, 0); stroke-opacity: 1;"/></defs><use href="#stroke-shape-render-5-781fcb8f-bea1-8073-8008-322db7c330a8-0" clip-path="url('#inner-stroke-render-5-781fcb8f-bea1-8073-8008-322db7c330a8-0')"/></g></g></g></g></svg>